<mxfile host="app.diagrams.net" modified="2020-06-13T10:23:50.117Z" agent="5.0 (Windows NT 10.0; Win64; x64) AppleWebKit/537.36 (KHTML, like Gecko) Chrome/83.0.4103.97 Safari/537.36" etag="gSvZj1tW9NQfTEIvGjCf" version="13.2.3" type="github">
  <diagram id="SUkS2OZnfgNpDWMGW-m6" name="第 1 页">
    <mxGraphModel dx="1422" dy="762" grid="1" gridSize="10" guides="1" tooltips="1" connect="1" arrows="1" fold="1" page="1" pageScale="1" pageWidth="827" pageHeight="1169" math="0" shadow="0">
      <root>
        <mxCell id="0" />
        <mxCell id="1" parent="0" />
        <mxCell id="PvY9zKrGI5pm8aYKj_oZ-18" value="首页" style="rounded=0;whiteSpace=wrap;html=1;dashed=1;fillColor=#008a00;strokeColor=#005700;fontColor=#ffffff;" vertex="1" parent="1">
          <mxGeometry x="710" y="63" width="253" height="422" as="geometry" />
        </mxCell>
        <mxCell id="PvY9zKrGI5pm8aYKj_oZ-2" value="" style="shape=image;verticalLabelPosition=bottom;labelBackgroundColor=#ffffff;verticalAlign=top;aspect=fixed;imageAspect=0;image=data:image/png,iVBORw0KGgoAAAANSUhEUgAAATwAAAIoCAYAAAD0qlcWAAAgAElEQVR4Ae3dB5hV5bn28TF2bCeWFPMlmpOqJ8bEY46KvUbsJbHEgkgQkSoIAqIg0gXpHQHpCNIEQaoK0qWKSJM6vZfdy/1d79psGDpD9H2HmT/XtZxxZs88z/49a9977VX2pPj9fpmlpKREBQUFys/PV15enrfk5uYqJyfngCU7O1ssGLAOsA64XgcOziaTV2Yx+WVyzCzFxcXy+XxexgUCAaWYsAsE/MrKylJ6eoays3MOCLSsrGyxYMA6wDpQ3teBAwM4RxkZJtPSvbBLbtilmPQzS0ZGpnw+v/iHAAIIVASBSCTqBV4y40zo7Qs8s3VXUuKrCPeT+4AAAggoFAopLS3d212XDL0Us+/OLAQeawgCCFQkgdKBZzLOhN6+wEskIVt4FWng3BcEKrOACbzU1DTvwAWBV5nXBO47ApVA4LCBZw7bmiU11bzWZQuvEqwH3EUEKoVAKBTWnj1pKioq2reVl0LgVYrZcycRqHQCBF6lGzl3GIHKK3CMwEvzjtZWXh7uOQIIVCQBsw9vz57UQ1/Smte45miGOZLBPwQQQKAiCCQDr7Cw0As9k2/ePjwCryKMl/uAAAKlBQ4beCbsCLzSTHyOAAIVQYDAqwhT5D4ggMBxCRB4x8XEjRBAoCIIEHgVYYrcBwQQOC4BAu+4mLgRAghUBAECryJMkfuAAALHJUDgHRcTN0IAgYogQOBVhClyHxBA4LgETjzwojEFI4epEQkqGAgd5ht8CQEEEHArUPbAixdo5sC39Je/3qyXei46pPvMhR/pyauu0v0vvKU1aYcJvkhAaRu/0pIvl2rZkmUntCz9cqlWrd2jaOyQ8nwBAQQQOKLAcQTewe+HF1eff/5VKSkp+uUNj2r7QaEzssML3vd+dPETWpV9aN3onlWqf0WKdxvzOw5ZTjtT55xzjs4+68xDv1fq9hde10m5wUN/P19BAAEEjiRw9MBLS5ffV6xtC8arT+/e6t27twYPHqoWT/9WZ6Sk6JTzL9MLLXro/SED1X/AIA3o+qbu+NN5XlD99PpH1KH3IA3o39f7ud5D5iijIKpo9nZ1e/I23XrbHbrzzrt19137l79Xu1d/vfR87+dPOauKrr3lbt17z/7ve7e94w7dftuterTeGBWFj3S3+DoCCCBwqMBRAy8tPVNhf64GPJgIoUO2xkptcR37e/dp1urE1mIoGJD/CPv5FrW50wvTy659SlsPF2ixiIIBv4Khw7xcPvT+8RUEEEBgn8DRAy8tQ35fkb4c8a6aNm6iFm+0UuvWrb3lrTZt1KlzBz1718063QTfGefowVpN1KFtW7Vu0zqxtG6tt95qpdebNlGTVsP1XeqBf+N2due39cj9D+nBB+5XtXurqVq1avrb7xLhesa5v9Stf0987b5779ODDzyohx6sqzFz0/c1zycIIIBAWQSOGnjJ98OLRuOKRSMqyMvU9h3b9y47tGvXTs3v31C/PiNFKVVu0NhFG7Vzx45St9mu3WnpCkRiikWjUjxeqrewOt97/WH2052u8y/4L51X5YzDfO/XajJmc6nfwacIIIDA8QscV+Alfl1QfdtUV5UqVXT2aaccJowOPQBxdpUq+p+bq2n9Yd9DNKwBj9/u/Z5fXFNbg4YM1eB+/TW4b38N6jtQA/sOUr8+gzRw4Pvq16ejrvr5qUo5/X/0xoRtx3/vuCUCCCBQSqAMgedXtxZPJ4LuZ7/V/1a9RVWvv17XX19VN914k2668UbdcN31uu7/rtNNN96s/7vmikSYXX2jviooVXHfp2ENfPQ27zb/22zGvq+qcK3qPf+M6jbroD37NgiDGvCPKko59Q9qOZ7A24/FZwggUBaBMgXeey2f8QLqn90nKLOgRAV5ecrLPXDJzclVUWGxstdN1SVVTtHP/lRVq44UeI8lAu8v9Sbv69m3dabOPiVF5//mGq0u3PvlSI56PXI2gbdPiU8QQOBEBMoUeN3feNYLvN/88U+6seoNqlq1qqreeOBy4403qmrVG3TjtVfpzNNO0WXX3FqmwAt9N0c/OTdFP7vqJq1JBl44Rz0JvBOZLz+DAAKlBE4o8E499XSdefbZOuusM3XmYZazzq6i036U2Kf362tvK1Pg5a4crovOMIF3w/6fI/BKjYxPEUDgRAXKGHiJl7S1Ow7Vt9u2a8uWTdq0+dBly7adWvNxR/34jFP086tu2h9cB3QZ1sDkS9q6+1/SbhxdX1VSUvSrax7WxuRZLATeAXL8DwIInJhA2QKvZeIl7W3/rKF27dodfWn6b51/1in6f1fffOTAe+QW7yXynxtO2tt9nlo8eWXia1W7at95x9Fc9XjwdKWc+ju1mMhBixMbNT+FAAJlC7y9+/COfVXF/lNU/vtvtx8x8Ho8nAi8/206y5vE+kGt9bNzzlDK2Rfqrf6fafNXC7VkY4akoEbW/qNOq3KFWk3kPDxWWwQQODGBMgZe4iXtNU830vujR2vEiOEaNnzYgcuwYfpgzFgNfe81nXd6ii7985Fe0krF2dn6buu32rBpk6Z2bqGr9p5s/NtrWmryqPd09blV9F8/v1x/rvacOvccpI/nLFXmwe9lcGL3m59CAIFKKFCmwEuellKjdT8tXbZMS5cuPfyybJmWTOmji88x+/BuPOIWXuaWTVo4baj+/feLdere63IvuvwazVy6VjP6NtTVf/hvnZW8XvfMC/SHq69Xx0ETtGbbHgWilXBa3GUEEPiPBMoUeMnTUsrykvbQo7RhfTV3rOrW/beuu/gCb39d4vedrtserq9PlpmXsIl/kcJUTe7yjp598HZdnAy+lBRdcPmtmr4hN3kzPiKAAALHJVCGwCvRu00fSwTUeVfq9rse0IP33Ze46N9c+F9quf/+B3X39Vd5t734iuu0LK90LyGtmtxSl5nrb1NSdP4v/qhnajfToDFTlHOkrbZwnj6b2Fe17rleP0pJ0S+uf0bLd+eX/qV8jgACCBxToAyBF9DyT8eq+etva+Ts1crIylN+bq7MlRUHL3l5+cratkRd326rd/uM1s7k6SXJduI5WvLJcH0wdqJWrN8i/5GCLnn7vR8j2Ts1acRIfbZu10Hf4X8RQACBYwuUIfDi3rudxA56h+Njl5D2XRJ7PDfmNggggMAPJFCGwPuBOuDXIoAAApYECDxL0JRBAAH3AgSe+xnQAQIIWBIg8CxBUwYBBNwLEHjuZ0AHCCBgSYDAswRNGQQQcC9A4LmfAR0ggIAlAQLPEjRlEEDAvQCB534GdIAAApYECDxL0JRBAAH3AgSe+xnQAQIIWBIg8CxBUwYBBNwLEHjuZ0AHCCBgSYDAswRNGQQQcC9A4LmfAR0ggIAlAQLPEjRlEEDAvQCB534GdIAAApYECDxL0JRBAAH3AgSe+xnQAQIIWBIg8CxBUwYBBNwLEHjuZ0AHCCBgSYDAswRNGQQQcC9A4LmfAR0ggIAlAQLPEjRlEEDAvQCB534GdIAAApYECDxL0JRBAAH3AgSe+xnQAQIIWBIg8CxBUwYBBNwLEHjuZ0AHCCBgSYDAswRNGQQQcC9A4LmfAR0ggIAlAQLPEjRlEEDAvQCB534GdIAAApYECDxL0JRBAAH3AgSe+xnQAQIIWBIg8CxBUwYBBNwLEHjuZ0AHCCBgSYDAswRNGQQQcC9A4LmfAR0ggIAlAQLPEjRlEEDAvQCB534GdIAAApYECDxL0JRBAAH3AgSe+xnQAQIIWBIg8CxBUwYBBNwLEHjuZ0AHCCBgSYDAswRNGQQQcC9A4LmfAR0ggIAlAQLPEjRlEEDAvQCB534GdIAAApYECDxL0JRBAAH3AgSe+xnQAQIIWBIg8CxBUwYBBNwLEHjuZ0AHCCBgSYDAswRNGQQQcC9A4LmfAR0ggIAlAQLPEjRlEEDAvQCB534GdIAAApYECDxL0JRBAAH3AgSe+xnQAQIIWBIg8CxBUwYBBNwLEHjuZ0AHCCBgSYDAswRNGQQQcC9A4LmfAR0ggIAlAQLPEjRlEEDAvQCB534GdIAAApYECDxL0JRBAAH3AgSe+xnQAQIIWBIg8CxBUwYBBNwLEHjuZ0AHCCBgSYDAswRNGQQQcC9A4LmfAR0ggIAlAQLPEjRlEEDAvQCB534GdIAAApYECDxL0JRBAAH3AgSe+xnQAQIIWBIg8CxBUwYBBNwLEHjuZ0AHCCBgSYDAswRNGQQQcC9A4LmfAR0ggIAlAQLPEjRlEEDAvQCB534GdIAAApYECDxL0JRBAAH3AgSe+xnQAQIIWBIg8CxBUwYBBNwLEHjuZ0AHCCBgSYDAswRNGQQQcC9A4LmfAR0ggIAlAQLPEjRlEEDAvQCB534GdIAAApYECDxL0JRBAAH3AgSe+xnQAQIIWBIg8CxBUwYBBNwLEHjuZ0AHCCBgSYDAswRNGQQQcC9A4LmfAR0ggIAlAQLPEjRlEEDAvQCB534GdIAAApYECDxL0JRBAAH3AgSe+xnQAQIIWBIg8CxBUwYBBNwLEHjuZ0AHCCBgSYDAswRNGQQQcC9A4LmfAR0ggIAlAQLPEjRlEEDAvQCB534GdIAAApYECDxL0JRBAAH3AgSe+xnQAQIIWBIg8CxBUwYBBNwLEHjuZ0AHCCBgSYDAswRNGQQQcC9A4LmfAR0ggIAlAQLPEjRlEEDAvQCB534GdIAAApYECDxL0JRBAAH3AgSe+xnQAQIIWBIg8CxBUwYBBNwLEHjuZ0AHCCBgSYDAswRNGQQQcC9A4LmfAR0ggIAlAQLPEjRlEEDAvQCB534GdIAAApYECDxL0JRBAAH3AgSe+xnQAQIIWBIg8CxBUwYBBNwLEHjuZ0AHCCBgSYDAswRNGQQQcC9A4LmfAR0ggIAlAQLPEjRlEEDAvQCB534GdIAAApYECDxL0JRBAAH3AgSe+xnQAQIIWBIg8CxBUwYBBNwLEHjuZ0AHCCBgSYDAswRNGQQQcC9A4LmfAR0ggIAlAQLPEjRlEEDAvQCB534GdIAAApYECDxL0JRBAAH3AgSe+xnQAQIIWBIg8CxBUwYBBNwLEHjuZ0AHCCBgSYDAswRNGQQQcC9A4LmfAR0ggIAlAQLPEjRlEEDAvQCB534GdIAAApYECDxL0JRBAAH3AgSe+xnQAQIIWBIg8CxBUwYBBNwLEHjuZ0AHCCBgSYDAswRNGQQQcC9A4LmfAR0ggIAlAQLPEjRlEEDAvQCB534GdIAAApYECDxL0JRBAAH3AgSe+xnQAQIIWBIg8CxBUwYBBNwLEHjuZ0AHCCBgSYDAswRNGQQQcC9A4LmfAR0ggIAlAQLPEjRlEEDAvQCB534GdIAAApYECDxL0JRBAAH3AgSe+xnQAQIIWBIg8CxBUwYBBNwLEHjuZ0AHCCBgSYDAswRNGQQQcC9A4LmfAR0ggIAlAQLPEjRlEEDAvQCB534GdIAAApYECDxL0JRBAAH3AgSe+xnQAQIIWBIg8CxBUwYBBNwLEHjuZ0AHCCBgSYDAswRNGQQQcC9A4LmfAR0ggIAlAQLPEjRlEEDAvQCB534GdIAAApYECDxL0JRBAAH3AgSe+xnQAQIIWBIg8CxBUwYBBNwLEHjuZ0AHCCBgSYDAswRNGQQQcC9A4LmfAR0ggIAlAQLPEjRlEEDAvQCB534GdIAAApYECDxL0JRBAAH3AgSe+xnQAQIIWBIg8CxBUwYBBNwLEHjuZ0AHCCBgSYDAswRNGQQQcC9A4LmfAR0ggIAlAQLPEjRlEEDAvQCB534GdIAAApYECDxL0JRBAAH3AgSe+xnQAQIIWBIg8CxBUwYBBNwLEHjuZ0AHCCBgSYDAswRNGQQQcC9A4LmfAR0ggIAlAQLPEjRlEEDAvQCB534GdIAAApYECDxL0JRBAAH3AgSe+xnQAQIIWBIg8CxBUwYBBNwLEHjuZ0AHCCBgSYDAswRNGQQQcC9A4LmfAR0ggIAlAQLPEjRlEEDAvQCB534GdIAAApYECDxL0JRBAAH3AgSe+xnQAQIIWBIg8CxBUwYBBNwLEHjuZ0AHCCBgSYDAswRNGQQQcC9A4LmfAR0ggIAlAQLPEjRlEEDAvQCB534GdIAAApYECDxL0JRBAAH3AgSe+xnQAQIIWBIg8CxBUwYBBNwLEHjuZ0AHCCBgSYDAswRNGQQQcC9A4LmfAR0ggIAlAQLPEjRlEEDAvQCB534GdIAAApYECDxL0JRBAAH3AgSe+xnQAQIIWBIg8CxBUwYBBNwLEHjuZ0AHCCBgSYDAswRNGQQQcC9A4LmfAR0ggIAlAQLPEjRlEEDAvQCB534GdIAAApYECDxL0JRBAAH3AgSe+xnQAQIIWBIg8CxBUwYBBNwLEHjuZ0AHCCBgSYDAswRNGQQQcC9A4LmfAR0ggIAlAQLPEjRlEEDAvQCB534GdIAAApYECDxL0JRBAAH3AgSe+xnQAQIIWBIg8CxBUwYBBNwLEHjuZ0AHCCBgSYDAswRNGQQQcC9A4LmfAR0ggIAlAQLPEjRlEEDAvQCB534GdIAAApYECDxL0JRBAAH3AgSe+xnQAQIIWBIg8CxBUwYBBNwLEHjuZ0AHCCBgSYDAswRNGQQQcC9A4LmfAR0ggIAlAQLPEjRlEEDAvQCB534GdIAAApYECDxL0JRBAAH3AgSe+xnQAQIIWBIg8CxBUwYBBNwLEHjuZ0AHCCBgSYDAswRNGQQQcC9A4LmfAR0ggIAlAQLPEjRlEEDAvQCB534GdIAAApYECDxL0JRBAAH3AgSe+xnQAQIIWBIg8CxBUwYBBNwLEHjuZ0AHCCBgSYDAswRNGQQQcC9A4LmfAR0ggIAlAQLPEjRlEEDAvQCB534GdIAAApYECDxL0JRBAAH3AgSe+xnQAQIIWBIg8CxBUwYBBNwLEHjuZ0AHCCBgSYDAswRNGQQQcC9A4LmfAR0ggIAlAQLPEjRlEEDAvQCB534GdIAAApYECDxL0JRBAAH3AgSe+xnQAQIIWBIg8CxBUwYBBNwLEHjuZ0AHCCBgSYDAswRNGQQQcC9A4LmfAR0ggIAlAQLPEjRlEEDAvQCB534GdIAAApYECDxL0JRBAAH3AgSe+xnQAQIIWBIg8CxBUwYBBNwLEHjuZ0AHCCBgSYDAswRNGQQQcC9A4LmfAR0ggIAlAQLPEjRlEEDAvQCB534GdIAAApYECDxL0JRBAAH3AgSe+xnQAQIIWBIg8CxBUwYBBNwLEHjuZ0AHCCBgSYDAswRNGQQQcC9A4LmfAR0ggIAlAQLPEjRlEEDAvQCB534GdIAAApYECDxL0JRBAAH3AgSe+xnQAQIIWBIg8CxBUwYBBNwLEHjuZ0AHCCBgSYDAswRNGQQQcC9A4LmfAR0ggIAlAQLPEjRlEEDAvQCB534GdIAAApYECDxL0JRBAAH3AgSe+xnQAQIIWBIg8CxBUwYBBNwLEHjuZ0AHCCBgSYDAswRNGQQQcC9A4LmfAR0ggIAlAQLPEjRlEEDAvQCB534GdIAAApYECDxL0JRBAAH3AgSe+xnQAQIIWBIg8CxBUwYBBNwLEHjuZ0AHCCBgSYDAswRNGQQQcC9A4LmfAR0ggIAlAQLPEjRlEEDAvQCB534GdIAAApYECDxL0JRBAAH3AgSe+xnQAQIIWBIg8CxBUwYBBNwLEHjuZ0AHCCBgSYDAswRNGQQQcC9A4LmfAR0ggIAlAQLPEjRlEEDAvQCB534GdIAAApYECDxL0JRBAAH3AgSe+xnQAQIIWBIg8CxBUwYBBNwLEHjuZ0AHCCBgSYDAswRNGQQQcC9A4LmfAR0ggIAlAQLPEjRlEEDAvQCB534GdIAAApYECDxL0JRBAAH3AgSe+xnQAQIIWBIg8CxBUwYBBNwLEHjuZ0AHCCBgSYDAswRNGQQQcC9A4LmfAR0ggIAlAQLPEjRlEEDAvQCB534GdIAAApYECDxL0JRBAAH3AgSe+xnQAQIIWBIg8CxBUwYBBNwLEHjuZ0AHCCBgSYDAswRNGQQQcC9A4LmfAR0ggIAlAQLPEjRlEEDAvQCB534GdIAAApYECDxL0JRBAAH3AgSe+xnQAQIIWBIg8CxBUwYBBNwLEHjuZ0AHCCBgSYDAswRNGQQQcC9A4LmfAR0ggIAlAQLPEjRlEEDAvQCB534GdIAAApYECDxL0JRBAAH3AgSe+xnQAQIIWBIg8CxBUwYBBNwLEHjuZ0AHCCBgSYDAswRNGQQQcC9A4LmfAR0ggIAlAQLPEjRlEEDAvQCB534GdIAAApYECDxL0JRBAAH3AgSe+xnQAQIIWBIg8CxBUwYBBNwLEHjuZ0AHCCBgSYDAswRNGQQQcC9A4LmfAR0ggIAlAQLPEjRlEEDAvQCB534GdIAAApYECDxL0JRBAAH3AgSe+xnQAQIIWBIg8CxBUwYBBNwLEHjuZ0AHCCBgSYDAswRNGQQQcC9A4LmfAR0ggIAlAQLPEjRlEEDAvQCB534GdIAAApYECDxL0JRBAAH3AgSe+xnQAQIIWBIg8CxBUwYBBNwLEHjuZ0AHCCBgSYDAswRNGQQQcC9A4LmfAR0ggIAlAQLPEjRlEEDAvQCB534GdIAAApYECDxL0JRBAAH3AgSe+xnQAQIIWBIg8CxBUwYBBNwLEHjuZ0AHCCBgSYDAswRNGQQQcC9A4LmfAR0ggIAlAQLPEjRlEEDAvQCB534GdIAAApYECDxL0JRBAAH3AgSe+xnQAQIIWBIg8CxBUwYBBNwLEHjuZ0AHCCBgSYDAswRNGQQQcC9A4LmfAR0ggIAlAQLPEjRlEEDAvQCB534GdIAAApYECDxL0JRBAAH3AgSe+xnQAQIIWBIg8CxBUwYBBNwLEHjuZ0AHCCBgSYDAswRNGQQQcC9A4LmfAR0ggIAlAQLPEjRlEEDAvQCB534GdIAAApYECDxL0JRBAAH3AgSe+xnQAQIIWBIg8CxBUwYBBNwLEHjuZ0AHCCBgSYDAswRNGQQQcC9A4LmfAR0ggIAlAQLPEjRlEEDAvQCB534GdIAAApYECDxL0JRBAAH3AgSe+xnQAQIIWBIg8CxBUwYBBNwLEHjuZ0AHCCBgSYDAswRNGQQQcC9A4LmfAR0ggIAlAQLPEjRlEEDAvQCB534GdIAAApYECDxL0JRBAAH3AgSe+xnQAQIIWBIg8CxBUwYBBNwLEHjuZ0AHCCBgSYDAswRNGQQQcC9A4LmfAR0ggIAlAQLPEjRlEEDAvQCB534GdIAAApYECDxL0JRBAAH3AgSe+xnQAQIIWBIg8CxBUwYBBNwLEHjuZ0AHCCBgSYDAswRNGQQQcC9A4LmfAR0ggIAlAQLPEjRlEEDAvQCB534GdIAAApYECDxL0JRBAAH3AgSe+xnQAQIIWBIg8CxBUwYBBNwLEHjuZ0AHCCBgSYDAswRNGQQQcC9A4LmfAR0ggIAlAQLPEjRlEEDAvcAxA6+4uMTrMh6PiwUD1gHWgZN1HTBBFgyGtGdPqgoLC1VUVKSSkhKlmE/Mkpqa5n2MxWKKRCIsGLAOsA6ctOtANBpVIBA4cuClpaUrKyvLC72CggKxYMA6wDpwsq4DZqsuNzf3aIGXpqzMLBUVFqmwoJAFA9YB1oGTdh0wOXbMwMvNyVXAH5Df52fBgHWAdeCkXQdMjpnQO+I+vLS0NJnAM2HnK/GxYMA6wDpw0q4DJsfMK1UCj5X4pF2J/5Mn4tKvWv6T38PP+ryNomAgqEg4sm8Jh8IyXzNbVuXB6OQNPAMYCskXDMnH1ue+lckM1KxkpVe60p+ble94blMeVk4bPRibWDSmaCTqPTBt1KxoNZLrk+Lytp42fL1BZvlmwzfasX2H8vLyvHXSGLsOvpMv8Ey4maArKVHwi5UKLl4jXyC492u85C4pLvFWsvnz5mve3HnesmjhIq1etVqbvt2kjPQMmdvs2rlLC+Yv2HebLxd9qTVr1mjzps3eQSqzYlS0B2bp+2OCPz8vX3Xq1NE9f79HI0eMVHpaOqFXxlc6JsDME8aaVWvU/PXmuuqqq3TppZfql7/8pS771WW6/PLL9Yc//EEPPfSQ5s2bJ3PSb8hspJSxzvd1+5Mr8MxWXSSiwOYdirw3QqpWR3qgnsIjP5Y/v0C+SLhSb+2ZLbsVy1fo97//vc4777x9ywXnX6Af//jHuuiii1T3lbr6auVX+utf/7rv++a2F1yw/zYtWrTwTjD/vlay8vh7TOCZndevN3tdVapU0VlnnaVePXuV7TKAuBSPxb2tw4r+BHG4GRpDs1U3efJk/f53v1dKSorn+Jvf/EY333yz7r7rbi8AzXpnvnfhhReqY8eOXtiZLevD/c4f+msnT+AFg17YmS262EtvS7fWUKxBJ8UadZb+/rJir3dX4OstKonHElt8jp5BfuiBHe33m5XIbKmdf/753gpmVrKDl2f+9YyWLlmqn//854d8L3nbV155xXvgH61WRfie2ToxgdWxQ0fP4t5779WUyVP0+YLPZbaQva3kefO8LROztWy2iBcuXOj5rVixQmtWr9H6deu1c8fOxJVIsbi39VwRbI51H4ydeYL9cPyH+tnPfub5PfXkU56ZeQVhtuKSy9YtWz3jZPC1adPGe7IxgXmsOt/390+OwAsG5S8oUmjCbMX/0Vi6+yVF+o6VP7dA/vxChYdOlu6urfizLRSauUi+ohL5AuVjJ+n3PbCj/T4TeIu/XKyLL774iGFW/fnqWrZ0mS677LIj3qZBgwaVIvCMpfk3a+Ysb2s3GfhnnnmmzHL66afrtNNO06mnnqof/ehH3ufnnHuOLrrwIu8Jwxj+9re/VdWqVdW8eXMtX7bc6cu1o60b3/f3zBPF2jVr9YtLf+E5mfufn5vvbfGFAiFvX50JRbOYfXfm9jOmz/BefRjPcWPHOVnHyn/ghULy5+Qr0necF3R6tJFCk+fJF0ps8fnCYW+LLjRlvvRQfeneOgoPn5oIPbNVWIm29Ai8svS/7hIAABtxSURBVO/DNdeErly50tvPZAKvWrVqMk8KtWvX1muvvaa2b7dVjx49NHjwYPXr10+dOnVSqzdaqWGDhqr5Yk09+cSTuuvOu7wnjx7de3gP7Iq+zpkQM8Hx5ptvevf7ySef9B5n5uXtke67+RnzzwSdcb7h+hu0bes2LwyP9DM/xNfLd+CZ1/mZOYp0HS7d+W/FarVJHKQwIWfCrHjvCm4+D4UU/Hyl4tXf8F7imq0+X3FJpTqYYQLPbL1dcvElR9x6YwvvwFA0ZuZgxR133OGZLViwwHswFxcV79s68R6pyf/E5R0BNw+c5G1MAJ5T5RwN6D/A24H/QzxQy9PvNC9lzdVXf/nLX7wtXfNS3/w7Vo/m5wryC/TYY4951sOHDT+unzvW7y3L98tv4IWC8qdlKtp+kHTPy4q+0UuBb7fL26I73Dk95iVsOKzA+s2KNekmPVhf4eFT5CsurjShZ1aor9d/rZ/+9KcE3nFu2ZstD/Ny68UXX/TMJk6c6D0IjaXZx5TcmjEPKvNgMYv5mvmeuY3598wzz+iUU06pNIFnniTSUtO89eyee+7x3m3keI68GjuzRT1m9BjPun69+t4uAJv78spn4Jl9dulZirXoId1UXdEWPeVPzfQOWhz1nDtzKkU0Iv+OVMUadfFeAocHfih/Vo58hwvJ43xQlOUZxOVtzQPQnPd0tIMWZsey2dd04UUXHjEUX3rpJevPvC7dzJ3t0L6D5/FO23f2Bd2xejLBZ95F6LbbbvN+dtTIUZViC88EnjmtyRz5b9SoUZnWFXPjlStWevtIq1ev7m0lH09YHmsWx/v9cht4gY3bFKvfwdsnF+k3PhFYx3MgYu+Rn0i3Ed5L22jLngps2l4pjtwG/UHl5eZ5+5jq1a0n8wx68NKndx/vSJo5Z+rg75n/f6XOK96RN7Oj+XhXopP9duZBaPYtmdNTXqj+grcFZx6Eya05E2ylF7NFYhZz/pnZ0rniiiu8nzVb1+ZJ52T3OFb/Zt3Yvn27dyrTGy3fKHPgmaPbZ599tp5//nnvaC2BZ7a8iksU+GabYnXaKdpxiHz5hQeGlgk/cwKyWUpvvZmtw9x8Rdv0U6xhp0TYJff1VbAtuiOtmKl7UvXF518cdpn96WzvDHiz38qckHzw7czpF+YE5crwwE36meBatmyZd7Ks2VozD0DzNfPRLCbckoFnQjD5c+aBv2jRIu+l3XXXXeedkmLz5VmyD9sfzRbe7l27vS28WrVqlTnwFi9e7G0Rv/rqq95BC2Nr6z6Uzy08E0yRcCK4Xu/uhZcvNz9xoMJ8z5ypXVQsf0a2t3gHJ5JHZE3gZeUq2rynoq37yldQVKn24ZmXC1dffbV+8pOf6JJLLtFPLvnJAUudl+t4V12YUykOdxvzMy1btqzwJx6XfoCZUMvOzvZ2wl/680s1bNgw74hsly5d1LZtW7Vs0VJNGjfxtn5r1Kihp556So88/IjMeXvG8dzzzvW+b36PzQdv6ftg8/PkPjxzNcW1117rhd/xvCIwNuZ2nTp28gKv+3vdyxSW38d9LL+BZ4IrJ0/RVn28fXi+7LxE4IXD8u/JkHmZG6vbQbF6HRQePDERfHu3+Mz+v2iTrt4BD5+5AsPBCY7fx3DK+jvMimi22s4991xvhUqeV1b647PPPOudOJs8WbT095KfV5YTj5O+5kFg/j344IOe2ykpp+inP/mpt8X368t/rd/97nfey1Zz2ZS5QuVvf/ubqt5QVbfcfIt3yVTr1q09d/OALr0FmPz9Fe2j2frPyc7xjmyb8xMHDRzk+R0r7M3BIbOP+corr/TObfxo4kcE3r6Vw4RUQaGi7QYq1rhrItCiEfkKixTpPtI7mGGuuIjVbC3dXF3hgRMSp6FEo/LvSfeCMNJtuLclWFlOQjaBx4nHB552sm99OsbuDHMOmQkuE/pXXnGlzINxw4bERfBbtmzxrqYwuwHMW6WZKwkioYj3YE3+pzLtAjChbtY1s9/TXJL3xz/80dslYCwODn1zW7OYXQQlRSXe+Y3G+KEHH/Ku67btZnopn28P5b2uL1GkyzAvvMxRWvOnhALrNktPNvUOaPg375T/m62K1W6r+HMtvf115jbmKG38pbcV7jMmsW/A4j6C432A/RC3I/BOLOzMLIzdwi8WelepXHzJxXr44Ye9k4vNy3vzEsycYzd2zFhNmTJFs2bN0mcLPtOSxUuUtifN28/3Q8yzPP9O89LUXFlhgssE2C233KI5s+d4wWa+ZzyTiwlCc/mdOZH7R6f+yDvY8emsT73nCvPkYfN+lu/A8wcU6TnKO+HYvyvNC7zgguVS1ecUHvOJfIrLF4spPGSSdNPzCi5d693Gv3WX4i+08l7qei9n/ft3NNvEtV3LrGDmzQPMfrvky9ODP3Li8eFD0TwQzInEAwcM9K4CMEcRzaVlZveAuejdXHtsLoo3L2nNg/u+++7T0089ra5dunpvxmAeuOZ32J65y3rmnLp5c+bpV5f9ylvfzD7hF2u8qGFDh3m7TcxRa3Nt8ttt3vbczMtfsz42adJk34Eg2/2X48BLvA1UpN84L7zMPrxiSaGpC6RbX1Rw0SqVKJ4IwdlLpFtqKDhniXcbs48v/kzzxInH4crzfnnm5YF5D7Kj7Z8j8A4feOaBZ16OmcXsnzKnm+zZvcfbIW+2Tsy+J3Mqhvlo/t+ch2aOVKanpnunAtl+4JaHesbK/DOX2B38xHqk/zdPHubNBMxLXBf3ofwGnncScVThwR8pfn89hcZ+ouDsLxVt2UvxJ15TYP0m+WJR791Rgiu+lh57VZHW/bzQC4+Ypni1OgqP/cS7zVFPVj7Gvh0XQznRmibwzAOxytlVjrgCPv7Y4947qpi3hDrSSlmzZk1vRT7RPk7mnzMPYuOYfDl2uI/m+8nFnIZS2bbskvMN+ALen2s0p6aYdelXv/qVbr/9dpmrL8wBILNbwFybbK41vvWWW73vmze2MNfQGr/k77H5sfwGXonPC7PwxNneZWLmTQP0UAPp0YbeW0KZE5PNe+P5zN+ZXLNJsVfaS4803HubRtLDDRSa+YVKYm6eSWwOMVnLPFjNtYo9e/TUO++8c9hl8qTJ3haKee+3I93mk08+cbZCJu8LH4+8JVpebMxRV3NOnQkxc3qOOafTrH8mCJP/zBOGed9Bs7/PnIZi3inFnPRu9vO5eKIo14Fnjq6agxXBNd9618ia62QD6zYp8M1WeeflmX1z5lSA7DwFNmxNfM/cZv1m72fM6SkHnJRcgbbmjrTSm4Ee6585X+xY/2zvTD7S/eHr5Tf4zGV1JvDMu0abd5wx/8yWW3Kr16yL5knY/H88GvfepMHsz+vZs6d3OwLv4EAyV0gEgyoxL12je5dYNLFlV/pAhDkKG40cejtzakslu8qCgCi/AVHRZmMCy2y9mcU8iR4rwEwYmtuY00JcWSTr81fLDg5b/t/ZSunqwUDdsj9ZmAA5nrBL2pqtPbMk/9/2RwKPYHO28tle2alX9kCraGblP/DMs0HpZwTzpgGlX86ao7nm++Zl7ZEWX+UbtBlswDsvzK+g2Rd6cLCb75sjjOZ93vb93VCzzyWoQAX28u/dp2S2MoyPcTI+h3tgez57DY3LIYalTP0+s6/q8L/ncL+7YnzNL+MZCpo3V0jsr/P22ZV+fO493Se492vGO1T68VzK0IZJ+Q08n3k3FPMGAnkK5BV4n/vCQQWKfArkmXP0wongKyyULyfPu525ra/QJ19Bgfw5ud7XvIMbls/mtjG4o9Xw+82K6FdRQbF8xYXKzS/ZG377g7+kqEj52fkKBIMqyMxUdlZe4i++FeYor6DkqA/uo9Uu39/ze2/9X5Cbq9zcApUU+1RUUKS8rDzPwQSWF/a+gPfnBIuyc5SfZ/Y3Fas4P0dFxYmANA8a736asAyGFDZ/hqCkRDkZBfv+DKF5mWcWEwTl22T/OlGWPkORaOIdZXzFykrLUG5eofdnL3Nz8pRfGFTE+1Oq5k1TfSrIyVdudpH35FJSXKys9CwVWw665H07YuAVFxerqKhIaWlp3vWD+4Zso1GfT/6C/MQf7mnbRHr2dQVzQ/JnrVe0zuuKtl0of2GB/EVFCq34VLHO3RXrN1ixfoMU69VV0Z4DFOs/SLHe/RTrNkCRLbkHbiXauA+uavhDUjBP8z8aoUGzNimav06tmvbXqu35ioQT+04CoaiCOVs1vmN3Lc2T1vboqKGjPlVG1k6N6tNRi9ODUiTkBUJyRTnZP/r9IQXz0jVrXF+91aWHenXrqA+/2KBl82aoXcteyo1E5C/2KegLKlCYrbTcXZrapa+WrtqkrB1rNaJLC60t3HtsOx5XzPxNlaICZaenKyc3W19M6KVaLw1SWk620lNTlbp7j1L3pCknzzzQTyxUyqu5uT87Vy/TnJlTNW5oN9Wr9bamzVqooV2natwHQ9S49VBtSs9R0FxvHMvWh0MHqN+UxF9227L2M9V5rb+K9lLGzIUBJfYuLyuHgWdeovoV/PozxXu9r1jbWtL9TyvWsq3ibVpJf6mmeO1uivfro+iqXQpu36zI7M8UnfuZolM+VPzmyxVv0V/ROZ8ruuBLReYvUmhPQSX5e7V+xcx1i1+MU60HXtK4DTlSNF8jm9VR4/cme1elhAIBleSnafn8aXr79br6d+dZ+vitBmrbra8+GNVN1e6rrykLl2v7njyZ25bXB11Z+woEYwrsXqMh3Wur5Yh5mj+6kzqMn6sx/ZronsfrauiwEerxbjeNX7RN4dSV6tmnuf71fFNNm7dYq5ZM1T/uuFtdBo/VmOFDNWjoaM3/Nk+BjM2aNnKwundqrefuukn/qv6mhg8frv69+6pPj57q1XOQ5q/eo3Cw4jiawAgGg1o5vL+aVn9STzz9omZt9UlFW9WmZnd9l/6dRnV4TcMmf65ALKKN0/vrX0/domfbjdPOzDytm/S2br2ngYaMGKVRI8dp5cbd8pndBZaeFI4aeGYrL23vO0TY28Iz59b5FEg1QTZH0WmfKDpjquJX/lKq0UbR+XMV/Xi6orPmKrQjx3sQBxZPV6xlY8V79Ff8seqKv9NH8R5NFK/TXcGNPvmi7v7SeVkfmCd8+2KfwjEpfd0sNX6uuvqOWe89h8aiUnHaar1e8zn1G7faC0Rf6loN7ttfvTp3UM0n7tE1f/6L/vS36/VEnbrq3KWLevQfruUbUhWNVBy3QDCqou3r9NnEjhozfbXWzf9Q9V9rrOefqK3e4z/WlAnTNLhLE9UatFDZGxep6+tP6u7bH1fdBi3VunlDPfVkddV+8iE99EB1PfPc82o0ao0C+TnaunmT3m/0iF5o3E2LFi3T7GkztGz1Gn21YoVWLF+l73bnKrn/6oRn6+rVwmHqmi3lkoyNGjZ0sNo2bqjnH7hfzTp1VYfWr+ne2+9Q47ffVe+O7dV5wIf6evN2vV/zKbXq1FENnnhZH4z8SN2b1VTzVq3UrkMnNXrmfrX74GNl+6WQ385WcOnAM69gTcaVlJQoxXyyP/DyjnmOzfc7TL9KFFNg/gzFa76h2MTJijVrpXi3IYpNHqtYrXaKfrxa5q+KmndHCb7fW/GmLRT6+ltFJgxQdNIyBZcOVOyKxopM2i2f3FzG8v2aHH2FCEWj2rFwvBo8cq+atB6uLXt2a+umLfp2wyZt37ZTi6b00KO33qze46erOBxUUcY2TR7QVvUbN1PbRtX1wkvV1axFCzVr9a7mr96mwhJz0OPoNW3ev/+0lhd4O9Zr7vh2Gj5huVZNH6kHHq2td7uO0LRpg7Q8T9LuuWo/fqk+nzxJvdr31YRu/TV6yBAN7j5EY4ZM07D3hqrz+7M0dep4dZqwRpG4lL1+qho+W0+fbszW9i8XalzvEcqKShFfUKFAWKFAxdqH5wVe5maNHTVMnd9orOceeUTv9BulD/r3UO0779SbHbqp93td1H3kTG3etEkfte6odEmbpk1T72Y1VLvdaGXsvRAj+7MhGjp1unYXRR0EXpq3y66cBF5AJfIrOPAD6cY3FJ2/QNHZcxWd/omi82YpdscrinWZLnNNgRd4o0crNvwj7//DI5sqOmmrfPFNit3dW5HJOypF4AUCIeVsXa8lC2ZrxHud1bDui3rg7n/q5fpvqHmjf6lmrRc0asan+ubrLSrK/kZt32qmzu9P0a6CsDaN7aMxU+coIzdDKz4eqi59+2rZjiLFQhXnpVgi8L7WvPHtNGTcYi39aKjajl+uVV/O09s1XtLIZZu0bf0najvyc323w7whgF8r+vbWiBEfK2v3N+rXs4O6jxil7uMnatq8SWo/frWkqGb3ba17qt6jGrVf0XP/eET33fl3vVCrlqpXf0lvvTtXxcHwIQeM/tPwdv7zvqD36iF72Tx1e6m2pi5dq01fr9K4t17R3LVLNahdT330SaoUzFS/uo+rRosWevbxGuo/fKK+mPmBmjYdoj0RKX1ufw2dNkN7CDyzhRdQcOg46ZYWin08VbExHyo2aoKiUyYoftcrivWYvT/w+ryveKdhCiiuyDvVFZ2dKl90tWLXtVdk4vZKEXjmQeAPhLyLuUOhEi0dPVAtnm+hr3OLlLV5jfq99II+/c48PUi5W5fr/QH99cHYKZq/+DO9W+Npvfp6B834bIFmTJqgoYNHafnXuxT0jj5WjK08c6CmaPsGzXq/qd7oPl3zJo1R+1HT1bNDG9V/o43qtOyswRM/VOcJy5W+e4+WfDJBTR57XM893kID3m2v197rqekjumrQsDFau26e2o39SiVFhUrdsVPbt32n7bu+0/xRw9W9RSct27ZTW779Vpu27k4c8a5AW8p+s78tb7dmjB2jd19voAeuu1GPPv2shkz/XCvnD9A9/3xaTVv1VlZMCuft0QeNm2rOmvUa17a9JkxZqEDRbr3b6Fk1GfyZMhcN0/DpnxB4vhKzhWcCb5TitzVVbOZ0xcZPUmz8ZEVnTlL8rrqKdv80EXixmIIjZyv64TIFM1cpfvnfFZ22SsGdqxRt+5FCyzPki7o7s9v2s7H3Rrz+PerdtIneHLLUCzhfdqqGNXpTq7OKFA1Hlf3tQnVt30ZtOrRT7Wcf1tX/e62u+Z+rVe3F+mrbvo2avtpOMxd+o4A5cnmY/Ti279P3Uc88GRRnpumbL4aq+ds91LvfWI2bOFEtn6ipVxs0VYOnX1GXzp3U9qOvtGX5YnVr3lTPPVFPH02erqFte2vWgkVqW6+Zxny2STtWjVXLMauVs3WtRg/ooff69NfgYUPVvvGrqvHws+o+eKgG9u+ld3v10bQvvvFOW/k+7kN5+B3mJa0/c5OG9O6vXm3e0mu1G2qtd/l2oYa3fE5X3/kPLcks0qpFG7R22XpNeOsdbfWHtLjnIE0c/Yn3mN25bpEmjJuileN6aujYj5RaEnf/ktbsyDNLenqGcnNt78PbG3jvj5Juba7o3E8VnTTNW2KzZyj+RCNFB83y8Mz5eAF/nqK9uih2YzXF3pqq6NiB0mMPK96iu8I7C/f/8Z8K8uA90opvHtSh3J0a0Kyh/lmvm7YWJt6GfPuKKar9eAdtyy/xdqAHzZdjfq2eO1x1ar+srmNn6fNJo9X6hcYaNHyBt29U8WjiLfMrjJk5gh3Xti8/VP2Xa6rRy001aOoCfbcrTYUlQZVkpmpK93/rlYGzlG92Dkta2quvZs5bptzcNE1oVV+vtfhQBYprXv+X1PjDFfLlZmjlonmaOXuuPl+0WBN6dVf7V1/T9C8XacHc2Zo1Z55WbdipwOFO/D6ZXX2JN58oWr1A/RrW0YQ5E9W16TOqX6+xmjdrpYEDB+vV1v316fwN+qDu03q1fVtVf+Ap9Rk+13vMhve+O/7U5nXUqc8YZYelkKWt4ORBi9TUtH0HLHw+n1KSgZeRkSFzMqG9o7TmJZR5SRtWcPQg6W+PKNZ/oGJdeyrWtZdi/Xsqfkd1RYfM8R6YgRWzFbvnfsUfbqro8DkKBCPy56UpOHuSom8+Jz30mkI78ir8Xy7z+0KKFe9Wp7ca6InG3bU+PVPzJvbW00/9S0/94yG1fv9LBYJhhUJRpa8ar9fqPqM6Ldpp5OzlKvDW36i+nTtD7V5tpEcfrqkpc1fLHAipGFt4foUiEWVvWqqmz/1b/WauUfqa6apVq4t2FPm14fNpali9hp5+uLpGfb5JgXBUMUU0u9Xbmjt/iTasna2X672jpUsXqOvr1fXIfa9o3sYMhc3topL5exjm3/ZPZ2ps+z7KN/9jvhaXouZ8vYr0BhbetbNB7flqmqo//rhefa2TZs+apNEfjNauoqDSv1miOg/domYDRmtPTqFmdH9PH3+5WNMnTdOStVtkVrW09cvU4bmndfs/62rCl5sVidl7JZEMPHN+cTLjvMAz/zGLm8DzJd72KSNVwa/Xyb99l/zf7UgsO3YouHajQnv2vvVTZpoCi7+Sf1eeF4DeH+wJhL2DGb7CVAVXbpQ/r7gSnIfnV6C4QN9+vVE7s4ulaEC7t2/WsiXLtXrNt8ouSrwFubkEqjBzu9avW68dGQWKRuMKm6sBfAFvC6g4J01fLVuj7bsyvS2TI21NnmxfN1eeFGZn6rtvvlO+P6pYJKjUHakqKCpWTtourV62VOs37Nh/NYU/oOzvdigrK1s5OdnalZanYHGGvlm1Uhu+TZNxLP1kYC6pyktL084t21Vk3rLsZN6CO0bvJjQKsnZr3boN2pmao+Jiv0LhuPemqeGAT+m7tmpPera3kVSQW6hITIqFI3uvYvGrMCdLm1at0vptqSoo2Xt1yzFqfl/r28GBl8y5FO8Tv0+ZmZnKy8v33uHADNXaYq71NEe4YnH5wxH5zf4ks4SjCsSiCoRC3tEvcxt/XPJHzEvbg/oLmdvGvAeueVPCQ75/8O1P8v83O5TNGytGjY33zr1RmTdpNO9FFvaudzQrlzlxNKxYNK5oOKzgQfc5HI54PxM2l0XtfT+zCuHmXTscUjQaVdi8xPSsIt79DwXDCadY1DvZ2rvf5vKycMS7TtRcPuZZBczPG8/Ezx3gkrzMLJw4KnvA9w4yrgjfM+uQWbcSLuYdUBLrlrnmOBKJK+rtajKX6O1dx7x3Sdm7/hnHmNn8TXibJw9bJuYaavN2Vunp6d4Gnck582ToBV4g4PcCz5x8nJ2VrazMrH1LZma2Si+lv2fj88xSvdioR439s8cCi/K8DphsOFI2mRzLSM/wAs8E3b7AM/9jFnM2ck5OjrJzcpSVnZ1YsswvPHDJyMgUCwasA6wDrtcB86q0dD5lZWXJW7KzvRwzWVZQYC43TWzdmYNKKd6Rpb2hl0xCc4Pkjr7klRjJjyYYWTBgHWAdcL0OJDMp+TGZWSa/kiGX3KAzOWeW/w9V6z0a+MB59wAAAABJRU5ErkJggg==;" vertex="1" parent="1">
          <mxGeometry x="120" y="60" width="263.33" height="460" as="geometry" />
        </mxCell>
        <mxCell id="PvY9zKrGI5pm8aYKj_oZ-3" value="&lt;font style=&quot;font-size: 14px&quot;&gt;原型图&lt;/font&gt;" style="text;html=1;align=center;verticalAlign=middle;resizable=0;points=[];autosize=1;" vertex="1" parent="1">
          <mxGeometry x="170" y="13" width="60" height="20" as="geometry" />
        </mxCell>
        <mxCell id="PvY9zKrGI5pm8aYKj_oZ-4" value="APP.vue" style="rounded=0;whiteSpace=wrap;html=1;fillColor=#dae8fc;strokeColor=#6c8ebf;dashed=1;" vertex="1" parent="1">
          <mxGeometry x="414" y="60" width="250" height="460" as="geometry" />
        </mxCell>
        <mxCell id="PvY9zKrGI5pm8aYKj_oZ-5" value="TabBar" style="rounded=0;whiteSpace=wrap;html=1;dashed=1;fillColor=#f8cecc;strokeColor=#b85450;" vertex="1" parent="1">
          <mxGeometry x="414" y="480" width="250" height="40" as="geometry" />
        </mxCell>
        <mxCell id="PvY9zKrGI5pm8aYKj_oZ-6" value="Tbar-Item" style="rounded=0;whiteSpace=wrap;html=1;dashed=1;fillColor=#d5e8d4;strokeColor=#82b366;" vertex="1" parent="1">
          <mxGeometry x="414" y="480" width="50" height="40" as="geometry" />
        </mxCell>
        <mxCell id="PvY9zKrGI5pm8aYKj_oZ-13" value="初步组件封装" style="text;html=1;align=center;verticalAlign=middle;resizable=0;points=[];autosize=1;" vertex="1" parent="1">
          <mxGeometry x="510" y="30" width="90" height="20" as="geometry" />
        </mxCell>
        <mxCell id="PvY9zKrGI5pm8aYKj_oZ-15" value="TabBar" style="rounded=0;whiteSpace=wrap;html=1;dashed=1;fillColor=#f8cecc;strokeColor=#b85450;" vertex="1" parent="1">
          <mxGeometry x="710" y="485" width="250" height="40" as="geometry" />
        </mxCell>
        <mxCell id="PvY9zKrGI5pm8aYKj_oZ-16" value="Tbar-Item" style="rounded=0;whiteSpace=wrap;html=1;dashed=1;fillColor=#d5e8d4;strokeColor=#82b366;" vertex="1" parent="1">
          <mxGeometry x="710" y="485" width="50" height="40" as="geometry" />
        </mxCell>
        <mxCell id="PvY9zKrGI5pm8aYKj_oZ-17" value="添加路由设置对应组件匹配的路径" style="text;html=1;align=center;verticalAlign=middle;resizable=0;points=[];autosize=1;" vertex="1" parent="1">
          <mxGeometry x="734" y="33" width="200" height="20" as="geometry" />
        </mxCell>
        <mxCell id="PvY9zKrGI5pm8aYKj_oZ-19" value="" style="endArrow=classic;html=1;" edge="1" parent="1">
          <mxGeometry width="50" height="50" relative="1" as="geometry">
            <mxPoint x="723" y="493" as="sourcePoint" />
            <mxPoint x="773" y="443" as="targetPoint" />
          </mxGeometry>
        </mxCell>
        <mxCell id="PvY9zKrGI5pm8aYKj_oZ-22" value="" style="endArrow=classic;html=1;" edge="1" parent="1">
          <mxGeometry width="50" height="50" relative="1" as="geometry">
            <mxPoint x="793" y="503" as="sourcePoint" />
            <mxPoint x="843" y="453" as="targetPoint" />
          </mxGeometry>
        </mxCell>
        <mxCell id="PvY9zKrGI5pm8aYKj_oZ-23" value="category" style="edgeLabel;html=1;align=center;verticalAlign=middle;resizable=0;points=[];" vertex="1" connectable="0" parent="PvY9zKrGI5pm8aYKj_oZ-22">
          <mxGeometry x="0.32" y="-3" relative="1" as="geometry">
            <mxPoint as="offset" />
          </mxGeometry>
        </mxCell>
        <mxCell id="PvY9zKrGI5pm8aYKj_oZ-24" value="" style="endArrow=classic;html=1;" edge="1" parent="1">
          <mxGeometry width="50" height="50" relative="1" as="geometry">
            <mxPoint x="893" y="503" as="sourcePoint" />
            <mxPoint x="943" y="453" as="targetPoint" />
          </mxGeometry>
        </mxCell>
        <mxCell id="PvY9zKrGI5pm8aYKj_oZ-25" value="cats" style="edgeLabel;html=1;align=center;verticalAlign=middle;resizable=0;points=[];" vertex="1" connectable="0" parent="PvY9zKrGI5pm8aYKj_oZ-24">
          <mxGeometry x="0.3" y="-4" relative="1" as="geometry">
            <mxPoint as="offset" />
          </mxGeometry>
        </mxCell>
        <mxCell id="PvY9zKrGI5pm8aYKj_oZ-26" value="组件树&amp;nbsp; component tree" style="swimlane;html=1;startSize=20;horizontal=1;childLayout=treeLayout;horizontalTree=0;resizable=0;containerType=tree;dashed=1;fillColor=#CFC4D0;gradientColor=none;" vertex="1" parent="1">
          <mxGeometry x="970" y="130" width="560" height="370" as="geometry">
            <mxRectangle x="1230" y="130" width="170" height="20" as="alternateBounds" />
          </mxGeometry>
        </mxCell>
        <mxCell id="PvY9zKrGI5pm8aYKj_oZ-27" value="APP.vue" style="whiteSpace=wrap;html=1;" vertex="1" parent="PvY9zKrGI5pm8aYKj_oZ-26">
          <mxGeometry x="230" y="40" width="100" height="40" as="geometry" />
        </mxCell>
        <mxCell id="PvY9zKrGI5pm8aYKj_oZ-29" value="" style="edgeStyle=elbowEdgeStyle;elbow=vertical;html=1;rounded=0;" edge="1" parent="PvY9zKrGI5pm8aYKj_oZ-26" source="PvY9zKrGI5pm8aYKj_oZ-27" target="PvY9zKrGI5pm8aYKj_oZ-34">
          <mxGeometry relative="1" as="geometry" />
        </mxCell>
        <mxCell id="PvY9zKrGI5pm8aYKj_oZ-33" value="" style="edgeStyle=elbowEdgeStyle;elbow=vertical;html=1;rounded=0;" edge="1" target="PvY9zKrGI5pm8aYKj_oZ-53" source="PvY9zKrGI5pm8aYKj_oZ-34" parent="PvY9zKrGI5pm8aYKj_oZ-26">
          <mxGeometry relative="1" as="geometry">
            <mxPoint x="1060" y="210" as="sourcePoint" />
          </mxGeometry>
        </mxCell>
        <mxCell id="PvY9zKrGI5pm8aYKj_oZ-34" value="Main-Tab-Bar" style="whiteSpace=wrap;html=1;" vertex="1" parent="PvY9zKrGI5pm8aYKj_oZ-26">
          <mxGeometry x="230" y="130" width="100" height="40" as="geometry" />
        </mxCell>
        <mxCell id="PvY9zKrGI5pm8aYKj_oZ-53" value="tab-bar" style="whiteSpace=wrap;html=1;" vertex="1" parent="PvY9zKrGI5pm8aYKj_oZ-26">
          <mxGeometry x="230" y="220" width="100" height="40" as="geometry" />
        </mxCell>
        <mxCell id="PvY9zKrGI5pm8aYKj_oZ-105" value="" style="edgeStyle=elbowEdgeStyle;elbow=vertical;html=1;rounded=0;" edge="1" target="PvY9zKrGI5pm8aYKj_oZ-106" source="PvY9zKrGI5pm8aYKj_oZ-53" parent="PvY9zKrGI5pm8aYKj_oZ-26">
          <mxGeometry relative="1" as="geometry">
            <mxPoint x="1090" y="300" as="sourcePoint" />
          </mxGeometry>
        </mxCell>
        <mxCell id="PvY9zKrGI5pm8aYKj_oZ-106" value="Tab-bar-item" style="whiteSpace=wrap;html=1;" vertex="1" parent="PvY9zKrGI5pm8aYKj_oZ-26">
          <mxGeometry x="20" y="310" width="100" height="40" as="geometry" />
        </mxCell>
        <mxCell id="PvY9zKrGI5pm8aYKj_oZ-109" value="" style="edgeStyle=elbowEdgeStyle;elbow=vertical;html=1;rounded=0;" edge="1" target="PvY9zKrGI5pm8aYKj_oZ-110" source="PvY9zKrGI5pm8aYKj_oZ-53" parent="PvY9zKrGI5pm8aYKj_oZ-26">
          <mxGeometry relative="1" as="geometry">
            <mxPoint x="1090" y="390" as="sourcePoint" />
          </mxGeometry>
        </mxCell>
        <mxCell id="PvY9zKrGI5pm8aYKj_oZ-110" value="Tab-bar-item" style="whiteSpace=wrap;html=1;" vertex="1" parent="PvY9zKrGI5pm8aYKj_oZ-26">
          <mxGeometry x="160" y="310" width="100" height="40" as="geometry" />
        </mxCell>
        <mxCell id="PvY9zKrGI5pm8aYKj_oZ-113" value="" style="edgeStyle=elbowEdgeStyle;elbow=vertical;html=1;rounded=0;" edge="1" target="PvY9zKrGI5pm8aYKj_oZ-114" source="PvY9zKrGI5pm8aYKj_oZ-53" parent="PvY9zKrGI5pm8aYKj_oZ-26">
          <mxGeometry relative="1" as="geometry">
            <mxPoint x="1160" y="390" as="sourcePoint" />
          </mxGeometry>
        </mxCell>
        <mxCell id="PvY9zKrGI5pm8aYKj_oZ-114" value="Tab-bar-item" style="whiteSpace=wrap;html=1;" vertex="1" parent="PvY9zKrGI5pm8aYKj_oZ-26">
          <mxGeometry x="300" y="310" width="100" height="40" as="geometry" />
        </mxCell>
        <mxCell id="PvY9zKrGI5pm8aYKj_oZ-115" value="" style="edgeStyle=elbowEdgeStyle;elbow=vertical;html=1;rounded=0;" edge="1" target="PvY9zKrGI5pm8aYKj_oZ-116" source="PvY9zKrGI5pm8aYKj_oZ-53" parent="PvY9zKrGI5pm8aYKj_oZ-26">
          <mxGeometry relative="1" as="geometry">
            <mxPoint x="1300" y="390" as="sourcePoint" />
          </mxGeometry>
        </mxCell>
        <mxCell id="PvY9zKrGI5pm8aYKj_oZ-116" value="Tab-bar-item" style="whiteSpace=wrap;html=1;" vertex="1" parent="PvY9zKrGI5pm8aYKj_oZ-26">
          <mxGeometry x="440" y="310" width="100" height="40" as="geometry" />
        </mxCell>
      </root>
    </mxGraphModel>
  </diagram>
</mxfile>
